{"asset":{"copyright":"","generator":"Aspose GLTF","version":"2.0"},"extensionsUsed":["KHR_materials_unlit"],"accessors":[{"name":"POSITION","bufferView":0,"componentType":5126,"count":224,"max":[791.63720703125,-210.1402130126953,0.0],"min":[2.0636355876922607,-912.3794555664062,-817.3978881835938],"type":"VEC3"},{"bufferView":1,"componentType":5123,"count":1052,"type":"SCALAR"}],"bufferViews":[{"buffer":0,"byteLength":2688,"byteStride":12,"target":34962},{"buffer":0,"byteLength":2104,"byteOffset":2688,"target":34963}],"buffers":[{"byteLength":4792,"uri":"model.bin"}],"materials":[{"extensions":{"KHR_materials_unlit":{}},"name":"material1","pbrMetallicRoughness":{}}],"meshes":[{"name":"mesh","primitives":[{"attributes":{"POSITION":0},"indices":1,"material":0,"mode":1}]}],"nodes":[{"mesh":0}],"scenes":[{"name":"Default","nodes":[0]}]}